<?xml version="1.0" ?><svg viewBox="0 0 512 512" xmlns="http://www.w3.org/2000/svg"><g data-name="Capa 15" id="Capa_15"><path d="M256,430a6,6,0,0,1-5.33-3.25l-93.44-180.9a112.34,112.34,0,0,1,3.23-109.37A110.18,110.18,0,0,1,252.89,82c2.06,0,4.15,0,6.22,0a110.18,110.18,0,0,1,92.43,54.52,112.34,112.34,0,0,1,3.23,109.37l-93.44,180.9A6,6,0,0,1,256,430ZM256,94c-.94,0-1.87,0-2.8,0a98.22,98.22,0,0,0-82.41,48.63,100.42,100.42,0,0,0-2.9,97.75L256,411l88.11-170.58a100.42,100.42,0,0,0-2.9-97.75A98.22,98.22,0,0,0,258.8,94C257.87,94,256.94,94,256,94Z"/><path d="M256,243.64a59.59,59.59,0,1,1,59.59-59.59A59.65,59.65,0,0,1,256,243.64Zm0-107.18a47.59,47.59,0,1,0,47.59,47.59A47.65,47.65,0,0,0,256,136.46Z"/></g></svg>